<?xml version="1.0" encoding="UTF-8"?>
<svg width="24" height="24" viewBox="0 0 24 24" fill="none" xmlns="http://www.w3.org/2000/svg">
    <path d="M12 6.5C15.79 6.5 19.17 8.63 20.82 12C20.23 13.42 19.38 14.68 18.34 15.69L19.74 17.09C21.21 15.72 22.31 13.97 23 12C21.27 7.61 17 4.5 12 4.5C10.6 4.5 9.26 4.75 8 5.2L9.17 6.37C10.07 6.42 11.03 6.5 12 6.5ZM10.56 6.99L13.56 9.99C14.31 9.34 15.31 9 16.35 9C18.01 9 19.35 10.34 19.35 12C19.35 13.04 19.01 14.04 18.36 14.79L21.36 17.79L22.77 16.38L10.56 4.17L9.15 5.58L10.56 6.99ZM1.39 4.22L4.17 7L4.46 7.29C2.86 8.65 1.66 10.44 1 12C2.73 16.39 7 19.5 12 19.5C13.55 19.5 15.03 19.2 16.38 18.66L16.8 19.08L19.78 22.06L21.19 20.65L2.8 2.26L1.39 3.67V4.22ZM6.54 9.37L8.55 11.38C8.28 11.57 8.06 11.77 7.86 12C7.86 13.66 9.2 15 10.86 15C11.09 15 11.29 14.78 11.48 14.51L13.49 16.52C12.74 16.83 11.89 17 11 17C8.24 17 6 14.76 6 12C6 11.11 6.17 10.26 6.54 9.37Z" fill="#FFFFFF"/>
</svg> 